<?xml version="1.0" standalone="no"?>
<!DOCTYPE svg PUBLIC "-//W3C//DTD SVG 20010904//EN"
 "http://www.w3.org/TR/2001/REC-SVG-20010904/DTD/svg10.dtd">
<svg version="1.0" xmlns="http://www.w3.org/2000/svg"
 width="3473.000000pt" height="2642.000000pt" viewBox="0 0 3473.000000 2642.000000"
 preserveAspectRatio="xMidYMid meet">
<metadata>
Created by potrace 1.15, written by Peter Selinger 2001-2017
</metadata>
<g transform="translate(0.000000,2642.000000) scale(0.100000,-0.100000)"
fill="#000000" stroke="none">
<path d="M14077 26388 c-53 -51 -51 -95 8 -211 25 -48 64 -133 86 -190 71
-177 118 -284 249 -567 70 -151 139 -312 154 -357 35 -106 72 -156 140 -189
l53 -27 44 29 c24 15 45 29 46 29 6 3 -38 167 -62 235 -15 41 -70 171 -122
288 -51 118 -132 327 -179 465 -79 233 -167 440 -212 495 -15 19 -31 24 -93
29 l-75 6 -37 -35z"/>
<path d="M20400 26024 c-25 -20 -50 -39 -57 -42 -16 -9 -29 -128 -48 -432 -20
-329 -40 -516 -70 -665 -19 -92 -25 -151 -25 -252 0 -99 -4 -143 -16 -173 -20
-48 -16 -169 6 -215 17 -35 48 -42 109 -25 97 26 126 85 140 285 7 98 21 174
55 310 58 232 92 418 111 608 52 540 51 521 18 600 l-16 37 -81 -1 c-77 0 -83
-2 -126 -35z"/>
<path d="M25923 25185 c-40 -32 -196 -213 -269 -310 -30 -41 -127 -182 -216
-312 -89 -131 -189 -276 -223 -323 -34 -47 -81 -118 -105 -159 -24 -41 -61
-95 -84 -119 -30 -33 -40 -51 -37 -70 5 -42 29 -68 76 -87 l45 -17 38 30 c189
152 708 775 857 1027 32 55 80 123 107 151 52 55 57 78 34 144 -15 43 -42 56
-126 65 -60 5 -68 4 -97 -20z"/>
<path d="M14800 24604 c-17 -43 -11 -165 11 -250 43 -164 172 -447 436 -957
180 -348 212 -398 235 -366 17 25 -2 141 -42 253 -21 61 -79 229 -129 372
-122 355 -163 459 -268 669 -50 99 -98 205 -108 236 -17 53 -20 57 -54 63 -60
10 -71 7 -81 -20z"/>
<path d="M17467 24563 c-16 -25 -48 -184 -59 -286 -23 -224 15 -495 126 -902
63 -233 66 -247 106 -505 16 -107 37 -222 45 -255 9 -37 19 -150 25 -295 12
-278 23 -363 59 -448 l26 -64 58 5 c32 3 61 8 64 10 9 9 -17 451 -37 655 -28
268 -70 543 -151 992 -86 474 -132 752 -155 937 -18 137 -19 142 -44 148 -14
3 -32 8 -42 11 -9 3 -19 1 -21 -3z"/>
<path d="M12498 24352 c-33 -20 -36 -56 -13 -145 22 -83 57 -148 147 -269 43
-58 117 -173 164 -255 98 -169 137 -224 328 -453 76 -91 172 -217 214 -282 86
-130 105 -145 173 -131 l44 9 -1 56 c-1 62 -37 151 -95 235 -18 25 -70 116
-116 201 -117 213 -200 345 -460 725 l-225 327 -66 0 c-45 0 -76 -6 -94 -18z"/>
<path d="M22294 24041 c-61 -37 -126 -161 -217 -408 -69 -186 -81 -210 -273
-544 -314 -548 -368 -670 -444 -1013 -58 -261 -94 -365 -162 -464 -25 -36 -28
-48 -23 -86 11 -68 16 -72 69 -52 95 36 150 135 246 436 54 168 79 226 184
435 67 132 154 296 194 365 39 69 87 169 107 223 42 119 56 146 158 317 166
278 216 420 224 627 8 186 1 203 -63 164z"/>
<path d="M20229 23898 c-55 -108 -79 -219 -104 -480 -20 -210 -34 -318 -51
-393 -7 -33 -14 -105 -14 -160 -1 -60 -7 -116 -15 -140 -22 -61 -22 -715 0
-715 8 0 15 4 15 9 0 6 10 21 23 35 36 39 48 94 57 270 l8 161 85 242 c47 133
100 299 118 370 31 118 33 140 33 283 0 85 -5 229 -10 320 -9 150 -12 168 -34
202 -20 31 -31 38 -57 38 -28 0 -35 -6 -54 -42z"/>
<path d="M15989 23684 c-22 -26 -39 -109 -39 -187 0 -159 59 -377 201 -738 53
-137 106 -290 126 -369 53 -210 92 -273 186 -298 82 -23 107 23 93 174 -9 103
-37 200 -116 408 -37 100 -102 300 -144 446 -102 360 -173 559 -199 560 -7 1
-31 5 -54 9 -32 6 -46 5 -54 -5z"/>
<path d="M24862 23584 c-63 -31 -105 -78 -185 -209 -34 -54 -101 -150 -149
-212 -207 -268 -335 -443 -452 -619 -69 -104 -140 -211 -159 -239 -35 -51 -64
-122 -53 -132 3 -3 30 6 61 21 63 31 99 72 175 201 58 97 168 214 375 399 194
173 234 225 339 441 51 105 110 212 130 238 l37 48 -20 44 c-11 25 -26 45 -33
45 -8 0 -37 -12 -66 -26z"/>
<path d="M10408 23283 c-21 -15 -38 -31 -38 -37 0 -6 14 -40 31 -76 25 -53 55
-89 179 -210 81 -80 217 -226 301 -325 180 -212 463 -498 604 -611 55 -45 151
-116 214 -160 72 -49 171 -133 266 -224 115 -111 168 -154 223 -183 64 -34 74
-37 87 -23 20 19 19 42 -5 93 -27 61 -65 106 -149 175 -84 70 -928 911 -1042
1038 -41 47 -123 148 -182 226 -126 166 -230 270 -313 309 -82 39 -129 41
-176 8z"/>
<path d="M23404 22878 c-66 -71 -107 -129 -199 -283 -97 -162 -133 -216 -260
-385 -149 -199 -180 -247 -249 -393 -34 -72 -75 -147 -91 -165 -26 -31 -27
-37 -22 -103 3 -38 9 -74 12 -79 11 -18 89 -10 140 14 73 34 117 87 188 222
35 65 132 217 215 336 228 324 349 525 426 705 l35 82 -22 40 c-18 33 -29 42
-57 47 -19 3 -42 8 -51 10 -10 3 -35 -16 -65 -48z"/>
<path d="M26915 22854 c-22 -19 -125 -106 -230 -192 -415 -341 -505 -427 -705
-672 -74 -90 -170 -200 -213 -243 -95 -95 -105 -117 -74 -158 19 -27 26 -30
61 -26 84 11 163 64 305 201 106 103 159 146 241 195 139 84 211 143 359 301
73 77 175 172 251 231 102 80 133 111 155 152 16 29 36 64 47 79 22 32 23 75
2 128 l-16 40 -72 0 c-67 -1 -73 -3 -111 -36z"/>
<path d="M9586 22826 c-20 -18 -36 -42 -36 -52 1 -24 151 -144 230 -184 32
-16 78 -34 104 -41 25 -6 46 -15 46 -20 0 -5 7 -9 15 -9 8 0 15 5 15 10 0 6 9
10 20 10 13 0 24 10 31 28 12 31 13 30 -136 147 -78 61 -217 145 -242 145 -6
0 -28 -15 -47 -34z"/>
<path d="M14472 22630 l-32 -39 11 -73 c33 -214 170 -482 439 -858 38 -54 69
-116 110 -222 50 -128 69 -164 157 -290 120 -171 140 -206 188 -322 74 -180
107 -226 140 -192 14 13 14 23 0 90 -16 77 -85 288 -150 456 -20 52 -52 159
-70 236 -37 152 -72 255 -107 313 -12 20 -62 92 -111 161 -52 72 -112 173
-144 240 -30 63 -102 211 -160 328 l-104 212 -68 0 c-67 0 -68 0 -99 -40z"/>
<path d="M19184 22585 c-36 -87 -64 -252 -84 -495 -13 -159 -33 -1078 -24
-1145 7 -61 62 -185 81 -185 45 0 109 27 143 59 60 58 70 106 70 360 0 119 7
340 15 491 9 151 18 404 22 561 l6 287 -44 51 -44 51 -63 0 c-63 0 -63 0 -78
-35z"/>
<path d="M12548 22397 c-69 -50 -71 -65 -26 -150 44 -81 159 -201 337 -349 80
-67 180 -155 222 -195 l75 -73 48 9 c26 5 50 11 53 15 8 8 -23 90 -60 156
-163 293 -476 634 -578 629 -8 0 -40 -19 -71 -42z"/>
<path d="M24620 21631 c-98 -30 -168 -95 -279 -260 -80 -117 -163 -205 -383
-404 -128 -116 -206 -216 -302 -384 -125 -220 -164 -280 -269 -418 -54 -71
-111 -156 -127 -189 -29 -58 -47 -122 -37 -132 12 -12 90 40 152 102 36 36
119 132 184 213 80 99 175 201 292 311 373 354 455 441 628 674 90 120 188
246 217 281 32 38 54 73 54 87 0 13 -12 47 -26 76 -27 55 -43 61 -104 43z"/>
<path d="M28935 21609 c-22 -17 -112 -74 -200 -126 -167 -100 -230 -147 -380
-283 -104 -94 -195 -155 -500 -340 -273 -165 -293 -178 -546 -366 -204 -151
-349 -250 -434 -295 -40 -21 -43 -26 -38 -54 8 -38 18 -45 71 -45 70 0 127 30
312 164 60 43 179 110 325 183 259 130 413 215 625 346 272 168 306 194 636
470 71 60 171 137 221 170 103 69 110 83 76 154 -18 39 -19 39 -83 47 -39 5
-50 2 -85 -25z"/>
<path d="M19900 21263 c-30 -157 -33 -331 -6 -391 10 -23 22 -42 25 -42 3 1
23 22 43 47 73 92 86 241 37 423 -20 76 -23 80 -49 80 -28 0 -28 -1 -50 -117z"/>
<path d="M13913 21182 c-62 -31 -65 -43 -33 -166 34 -135 74 -194 313 -462 43
-48 128 -162 190 -253 70 -104 195 -266 337 -436 244 -292 401 -486 469 -579
l43 -58 46 6 c52 7 68 17 76 50 4 17 -6 34 -45 77 -75 80 -151 199 -220 345
-234 492 -261 538 -472 781 -51 60 -126 146 -166 193 -41 47 -115 148 -166
225 -97 147 -175 234 -238 266 -73 38 -79 38 -134 11z"/>
<path d="M16838 21086 c-35 -44 -35 -72 -2 -178 36 -113 73 -191 197 -413 89
-161 137 -260 170 -358 11 -29 51 -41 105 -31 46 9 47 10 44 44 -19 206 -144
531 -303 790 -114 185 -110 180 -149 180 -28 0 -41 -7 -62 -34z"/>
<path d="M26365 21007 c-16 -13 -95 -65 -175 -116 -134 -85 -158 -104 -315
-264 -93 -95 -183 -182 -199 -193 l-30 -20 23 -37 c12 -20 24 -37 27 -37 2 0
32 11 66 24 201 75 627 330 755 451 86 81 79 136 -23 184 -71 34 -95 35 -129
8z"/>
<path d="M17893 20883 c-13 -20 -19 -51 -21 -118 l-3 -90 36 -37 c37 -40 55
-47 55 -24 0 8 8 17 19 21 10 3 37 31 61 62 37 49 41 60 35 92 -4 20 -18 55
-31 79 -24 41 -26 42 -79 42 -48 0 -57 -3 -72 -27z"/>
<path d="M20761 20579 c-31 -38 -33 -44 -27 -92 4 -29 15 -76 24 -105 l17 -54
38 5 c73 10 117 59 138 153 11 48 10 55 -10 83 -15 21 -33 32 -59 36 -20 4
-48 8 -62 11 -20 3 -32 -5 -59 -37z"/>
<path d="M21830 20512 c-253 -234 -273 -258 -418 -530 -30 -55 -76 -127 -103
-161 -27 -34 -49 -67 -49 -75 0 -7 9 -25 20 -39 17 -21 25 -24 49 -17 116 33
217 136 488 495 83 110 165 213 182 229 34 33 40 76 20 134 -11 31 -47 62 -71
61 -7 0 -60 -44 -118 -97z"/>
<path d="M19128 20448 c-8 -14 -13 -57 -13 -108 0 -72 4 -92 25 -129 14 -24
29 -52 35 -62 32 -60 51 21 40 169 -6 85 -10 100 -33 125 -31 33 -38 33 -54 5z"/>
<path d="M15561 20285 c-17 -20 -31 -46 -31 -59 0 -41 116 -206 302 -427 113
-135 136 -153 184 -144 38 7 38 9 7 110 -56 184 -230 440 -353 520 -61 40 -74
40 -109 0z"/>
<path d="M24220 19687 l-514 -402 -134 -165 c-257 -318 -405 -468 -536 -545
-59 -35 -74 -74 -44 -116 19 -26 26 -28 57 -23 51 8 155 58 215 101 28 21 114
99 191 173 118 113 189 169 435 344 675 479 889 668 1027 904 25 43 25 43 6
65 -11 12 -23 29 -26 38 -3 10 -22 18 -53 23 -104 14 -71 35 -624 -397z"/>
<path d="M12897 19858 c-29 -45 -145 -155 -318 -304 -109 -95 -232 -214 -326
-315 -164 -179 -308 -318 -718 -690 -148 -135 -380 -358 -515 -495 -190 -194
-276 -274 -385 -356 -107 -82 -185 -153 -329 -303 -224 -233 -367 -364 -781
-714 -170 -145 -382 -329 -470 -411 -288 -266 -416 -367 -570 -452 -248 -135
-487 -213 -1040 -338 -688 -155 -924 -224 -1160 -340 -264 -129 -414 -246
-750 -584 -137 -138 -294 -289 -347 -334 -109 -93 -139 -127 -261 -299 -110
-153 -172 -221 -250 -274 -100 -67 -284 -150 -557 -252 -140 -53 -336 -133
-435 -178 -252 -114 -302 -133 -825 -309 -415 -141 -715 -244 -1280 -441 -96
-34 -263 -97 -370 -139 -180 -72 -232 -90 -347 -120 -46 -12 -57 -34 -20 -43
12 -3 54 -17 92 -31 106 -37 209 -46 555 -46 568 0 751 37 1484 302 138 49
577 199 976 333 399 134 762 257 808 274 46 17 167 54 269 82 459 125 537 171
673 394 225 369 655 887 877 1054 129 97 209 122 459 141 204 16 302 5 629
-70 94 -21 250 -50 348 -64 201 -29 294 -49 339 -72 29 -15 36 -15 95 1 82 22
156 71 268 176 50 47 200 177 335 289 242 202 462 410 530 502 19 26 38 48 43
48 4 0 4 -57 0 -127 -5 -71 -8 -261 -8 -423 0 -273 2 -302 23 -395 33 -141 41
-341 17 -421 -9 -33 -22 -74 -27 -92 -18 -61 -97 -132 -239 -216 -164 -97
-183 -111 -337 -258 -90 -85 -167 -146 -280 -221 -174 -116 -295 -210 -360
-281 -23 -25 -47 -46 -52 -46 -6 0 -10 -7 -10 -15 0 -19 18 -15 140 27 126 44
278 119 535 264 249 141 272 152 457 218 175 62 1060 460 1233 554 l50 27 47
205 c26 113 75 318 108 455 33 138 64 294 70 348 5 53 15 140 20 194 6 53 21
126 33 162 14 40 179 335 424 757 258 445 436 763 500 895 55 112 123 240 153
284 101 150 213 242 361 296 70 26 253 59 262 48 2 -2 30 -371 61 -819 31
-448 59 -831 62 -851 5 -31 18 -48 87 -105 548 -458 757 -928 647 -1454 -16
-78 -19 -136 -20 -315 0 -217 -12 -321 -41 -350 -5 -5 -9 -86 -9 -181 l0 -173
28 -19 c15 -11 59 -35 97 -55 112 -56 448 -365 547 -503 38 -54 62 -59 56 -11
-3 17 -15 98 -27 180 -11 81 -30 213 -41 295 -26 186 -54 291 -129 486 -110
286 -122 370 -77 548 40 159 178 465 296 657 17 27 49 92 71 143 22 51 52 109
68 129 28 34 28 38 19 90 -16 90 -69 186 -185 341 -166 220 -259 384 -350 618
-88 223 -142 508 -127 668 10 111 43 233 82 307 34 64 40 70 66 68 40 -3 179
-71 269 -132 121 -81 221 -166 403 -341 94 -91 270 -246 390 -345 120 -99 257
-220 304 -269 179 -189 353 -340 558 -483 59 -41 139 -105 177 -142 140 -134
484 -299 933 -445 140 -46 207 -62 345 -82 183 -27 274 -47 319 -70 29 -15 78
-19 78 -6 0 16 -57 98 -109 157 -90 103 -683 923 -762 1054 -41 68 -102 154
-136 191 -35 37 -63 73 -63 79 0 15 159 -43 260 -95 91 -47 181 -105 430 -278
199 -139 217 -149 640 -366 562 -289 752 -397 990 -564 135 -95 310 -265 359
-349 73 -124 116 -294 128 -504 l6 -113 29 0 c16 0 145 12 286 26 393 39 524
26 607 -60 66 -69 80 -123 79 -311 -1 -203 -24 -298 -119 -493 -146 -300 -313
-543 -711 -1028 -95 -116 -205 -258 -245 -315 -100 -144 -163 -221 -209 -255
-22 -16 -40 -37 -40 -46 0 -16 4 -16 51 3 75 29 167 92 318 219 74 61 200 156
281 209 144 96 266 183 605 431 233 170 410 290 631 426 311 191 408 269 470
379 53 96 60 172 39 422 -18 211 -16 297 9 357 8 19 52 76 98 127 46 52 113
130 148 174 79 99 123 150 330 389 137 157 184 203 282 278 64 49 126 101 136
115 l19 27 89 -12 c139 -17 253 -56 464 -157 107 -51 269 -126 360 -165 91
-40 221 -101 290 -136 362 -183 487 -324 915 -1024 244 -400 337 -537 486
-717 78 -93 131 -131 364 -258 190 -103 296 -176 505 -344 199 -160 269 -220
411 -353 63 -59 164 -142 224 -183 165 -112 302 -224 404 -330 78 -81 121
-113 121 -90 0 19 -85 227 -157 384 -191 420 -234 562 -234 783 0 158 -4 154
149 139 269 -27 580 -106 1177 -300 477 -154 736 -233 1565 -471 811 -233
1060 -307 1395 -415 127 -40 295 -92 375 -115 138 -40 676 -172 750 -184 79
-14 764 -76 829 -76 57 0 71 3 71 15 0 9 -6 17 -12 19 -190 53 -379 127 -688
268 -244 112 -348 153 -1075 428 -1006 380 -1624 609 -1909 706 -529 181 -761
317 -850 496 -14 29 -26 61 -26 73 0 12 -6 29 -12 38 -7 9 -258 115 -558 236
-1011 406 -1379 573 -1801 817 -278 160 -331 200 -574 434 -76 73 -165 146
-243 199 -233 157 -414 296 -897 691 -295 241 -464 372 -620 480 -239 167
-323 231 -490 375 -202 174 -306 253 -417 318 -119 69 -118 69 -186 6 -32 -30
-121 -94 -198 -142 -161 -102 -238 -162 -499 -392 -236 -207 -337 -285 -538
-413 -183 -117 -258 -173 -345 -257 l-64 -60 -251 -8 c-181 -6 -290 -5 -387 4
-74 7 -261 15 -415 18 -250 5 -284 8 -310 25 -17 10 -120 109 -230 220 l-200
202 -215 139 c-486 315 -705 434 -1175 643 -416 184 -486 221 -1715 907 -766
428 -1249 694 -1339 739 -39 20 -196 93 -349 162 -471 214 -662 316 -835 447
-99 74 -165 134 -407 372 -202 197 -329 315 -341 315 -4 0 -13 -10 -22 -22z"/>
<path d="M18625 19250 c-11 -5 -84 -9 -163 -9 -211 -1 -781 -77 -992 -132
-197 -52 -438 -132 -610 -204 -198 -82 -640 -305 -640 -322 0 -8 5 -23 11 -34
9 -18 17 -19 52 -14 60 10 190 58 341 124 242 107 234 105 963 251 624 126
714 141 848 149 161 9 483 -2 605 -20 41 -6 179 -14 305 -18 224 -8 561 -42
755 -77 47 -8 145 -35 219 -60 429 -145 772 -349 1240 -738 80 -67 227 -183
326 -257 271 -202 390 -331 441 -475 l18 -52 54 -5 c45 -5 62 -2 93 16 36 20
39 25 39 67 0 147 -110 340 -276 486 -100 87 -172 140 -335 247 -155 101 -247
171 -404 307 -243 210 -368 295 -607 410 -462 221 -1003 330 -1778 360 -314
12 -478 12 -505 0z"/>
<path d="M30100 10730 c-31 -8 -405 -15 -610 -11 -167 2 -218 0 -274 -15 -74
-18 -82 -25 -91 -77 -11 -68 -16 -403 -8 -519 7 -85 6 -108 -4 -108 -17 0 -16
-11 3 -38 12 -17 13 -26 4 -36 -17 -22 -24 -145 -10 -203 11 -46 11 -55 -4
-78 -14 -21 -15 -32 -6 -65 14 -51 14 -314 0 -340 -8 -14 -7 -28 3 -52 14 -34
15 -296 2 -338 -5 -15 2 -28 24 -47 37 -33 39 -43 7 -43 -34 0 -49 -56 -26
-99 6 -13 5 -43 -5 -92 -9 -47 -10 -75 -4 -77 6 -3 6 -9 -1 -17 -7 -9 -9 -98
-6 -281 3 -148 6 -297 6 -331 0 -34 4 -64 8 -67 9 -5 7 -619 -2 -736 -8 -94 6
-252 23 -258 14 -5 15 -32 1 -32 -5 0 -10 -9 -10 -20 0 -13 7 -20 20 -20 25 0
26 -17 1 -25 -33 -10 -58 -155 -26 -155 19 0 19 -10 -1 -38 -21 -30 -32 -195
-14 -217 9 -10 9 -19 2 -28 -13 -16 -27 -214 -18 -262 l7 -38 57 7 c35 4 62
13 70 23 6 9 12 13 12 7 -1 -17 -60 -74 -78 -74 -38 0 -63 -29 -62 -73 0 -23
0 -188 1 -367 1 -192 5 -330 11 -337 6 -7 6 -32 -1 -69 -7 -38 -8 -61 -1 -69
7 -9 7 -29 -1 -64 -9 -43 -8 -56 5 -75 14 -22 14 -25 -1 -37 -13 -11 -14 -28
-9 -102 5 -61 3 -93 -4 -103 -14 -16 -5 -34 18 -34 23 -1 58 -28 47 -37 -4 -5
-10 -2 -12 5 -7 20 -29 14 -47 -13 -20 -30 -20 -55 -2 -81 13 -17 12 -21 -6
-41 -17 -18 -19 -25 -9 -37 7 -8 11 -28 10 -43 -2 -15 0 -33 4 -40 4 -6 3 -33
-3 -59 -6 -26 -8 -60 -5 -76 4 -17 2 -35 -6 -44 -9 -11 -10 -37 -4 -97 4 -45
7 -91 5 -102 -1 -11 -4 -99 -6 -195 -4 -124 -2 -181 7 -197 9 -17 9 -53 -1
-160 -8 -93 -10 -207 -6 -348 4 -115 8 -280 9 -365 2 -175 9 -200 58 -200 16
0 44 -7 62 -17 37 -19 172 -20 325 -1 74 8 106 8 147 -2 61 -15 51 -14 580 -7
256 3 400 2 420 -5 22 -7 63 -7 140 2 68 8 260 13 498 14 466 2 428 -11 439
149 4 56 7 122 6 147 -3 48 -3 55 5 474 l6 279 -29 28 c-27 28 -33 29 -127 31
-91 2 -175 0 -328 -8 -33 -2 -103 -2 -155 -1 -98 1 -112 1 -218 -6 -42 -3 -65
0 -73 9 -5 7 -32 15 -59 19 -46 6 -50 9 -56 40 -3 19 -3 38 0 44 3 5 -1 17
-10 26 -14 14 -15 22 -5 53 15 47 16 91 6 229 -6 90 -11 113 -24 116 -11 3 -9
5 5 6 12 0 25 8 28 17 3 9 6 225 6 480 0 384 -2 467 -13 479 -22 21 -28 145
-22 423 3 139 2 259 -2 265 -4 7 -6 38 -4 70 2 36 -2 63 -10 73 -10 12 -8 20
10 45 31 42 43 205 17 244 -9 14 -23 25 -30 25 -8 0 -35 9 -60 19 -36 16 -52
18 -82 10 -24 -7 -39 -7 -43 -1 -3 6 -43 9 -89 8 -70 -1 -85 2 -93 17 -9 15
-26 17 -137 17 -70 0 -201 0 -292 1 -91 1 -194 -1 -231 -5 -47 -4 -70 -2 -84
7 -16 12 -11 15 46 22 72 9 160 10 264 1 209 -16 345 -19 345 -6 0 8 6 10 18
5 31 -13 65 -16 237 -20 94 -2 181 -5 195 -7 46 -6 50 22 60 401 7 287 6 361
-5 416 -11 50 -12 73 -4 88 8 13 12 205 13 591 1 314 6 579 10 588 4 9 3 33
-4 53 -6 19 -9 47 -6 63 15 67 23 267 14 340 -5 42 -9 139 -8 214 1 83 -3 145
-10 158 -6 11 -7 20 -3 20 4 0 8 166 8 368 0 328 -2 371 -17 394 -15 23 -15
29 -1 69 10 31 13 61 8 101 -3 32 -2 66 4 76 12 23 26 344 17 404 -6 39 -11
47 -44 62 -41 20 -209 40 -262 32 -19 -3 -71 -1 -115 4 -154 17 -190 19 -225
10z"/>
<path d="M33060 10730 c-31 -8 -424 -15 -605 -11 -160 3 -223 0 -280 -15 -63
-15 -87 -35 -84 -69 1 -11 -4 -40 -11 -65 -9 -34 -11 -94 -5 -250 10 -307 11
-320 3 -320 -13 0 -9 -28 6 -42 11 -11 11 -16 -1 -35 -21 -31 -23 -180 -4
-216 13 -25 13 -30 -8 -58 -18 -24 -20 -33 -10 -45 8 -10 11 -64 10 -182 0
-92 -1 -185 -1 -207 0 -22 1 -122 1 -222 0 -181 0 -181 25 -197 31 -21 31 -36
-1 -36 -20 0 -25 -6 -31 -36 -4 -22 -2 -45 6 -59 10 -19 10 -36 1 -82 -9 -43
-11 -151 -6 -423 3 -201 7 -584 8 -851 2 -462 3 -488 21 -508 17 -19 17 -21 2
-27 -27 -10 -20 -44 9 -44 29 0 33 -16 6 -25 -33 -10 -58 -155 -26 -155 20 0
19 -15 -2 -36 -15 -15 -18 -38 -20 -138 -1 -67 -5 -173 -9 -237 -4 -64 -4
-129 0 -144 7 -27 8 -27 64 -20 34 4 62 13 70 23 6 9 12 12 12 6 -1 -18 -60
-74 -79 -74 -10 0 -29 -8 -42 -19 l-23 -18 2 -363 c2 -241 6 -368 13 -376 8
-9 7 -29 -1 -69 -9 -41 -9 -60 0 -69 8 -10 8 -26 -1 -60 -9 -36 -9 -53 1 -76
10 -23 10 -33 1 -44 -8 -9 -11 -46 -10 -103 2 -48 -1 -98 -5 -110 -7 -20 -5
-23 15 -23 28 -1 66 -27 54 -37 -4 -5 -10 -2 -12 5 -8 20 -30 14 -48 -14 -18
-29 -13 -94 7 -94 7 0 2 -9 -11 -21 -15 -14 -20 -26 -15 -38 4 -9 8 -29 9 -46
0 -16 4 -35 8 -42 4 -6 3 -33 -3 -59 -6 -26 -8 -59 -5 -74 3 -14 -1 -39 -10
-57 -14 -28 -14 -40 -1 -115 9 -52 11 -89 5 -100 -14 -26 -12 -368 2 -368 9 0
10 -21 5 -72 -19 -205 -23 -344 -14 -488 5 -85 10 -227 11 -315 2 -88 6 -168
11 -177 5 -12 20 -18 41 -18 17 0 47 -8 66 -17 39 -19 178 -20 322 -1 69 9 99
8 142 -2 60 -14 48 -14 575 -7 249 4 401 2 430 -5 32 -7 73 -7 145 2 60 8 253
13 485 14 281 1 391 5 407 14 28 16 44 73 42 154 -1 35 1 247 4 472 l7 408
-29 29 c-28 27 -34 29 -123 31 -94 2 -195 0 -323 -8 -38 -2 -110 -3 -160 -2
-101 2 -122 2 -217 -5 -47 -3 -71 0 -78 8 -6 7 -31 16 -55 19 -52 8 -56 13
-59 67 -1 22 -8 44 -15 48 -10 7 -10 18 3 56 23 66 12 335 -13 336 -10 0 -8 3
7 9 l22 9 1 293 c1 574 -1 659 -16 682 -15 23 -22 194 -18 431 2 72 2 141 1
155 -1 14 2 37 6 51 5 18 3 31 -7 41 -11 10 -12 19 -5 32 7 12 6 37 -2 78 -10
52 -9 62 4 77 10 11 21 52 27 103 11 94 -2 152 -38 164 -10 3 -39 14 -64 25
-36 14 -54 16 -79 9 -18 -5 -38 -6 -44 -2 -6 4 -45 7 -87 7 -58 0 -79 4 -93
18 -14 13 -35 17 -101 17 -48 0 -87 -5 -90 -10 -4 -7 -11 -7 -18 -2 -15 12
-107 24 -107 14 0 -4 -60 -4 -132 0 -73 5 -140 5 -148 2 -30 -11 -123 -12
-149 -1 -24 10 -21 11 39 20 72 11 159 12 265 3 219 -17 337 -19 345 -6 5 8
14 10 26 5 28 -13 55 -15 229 -18 88 -2 172 -7 187 -11 22 -6 29 -3 42 17 24
36 42 724 22 812 -11 44 -12 65 -3 80 7 14 11 199 12 590 1 314 5 578 9 587 4
9 3 33 -4 52 -8 26 -9 50 -1 88 17 91 23 259 11 328 -7 41 -12 260 -13 595 -2
411 -5 535 -15 553 -10 17 -11 32 -4 55 6 18 13 84 16 147 3 63 10 171 16 239
9 115 3 222 -15 251 -15 25 -116 41 -284 46 -95 2 -192 9 -215 14 -48 11 -88
11 -136 0z"/>
<path d="M2495 10659 c-16 -6 -52 -16 -80 -22 -69 -17 -88 -53 -82 -152 8
-112 -29 -482 -59 -593 -14 -51 -15 -68 -6 -83 7 -10 9 -19 4 -19 -12 0 -33
-346 -31 -511 1 -80 0 -150 -3 -155 -15 -24 -38 -122 -38 -160 0 -37 3 -43 26
-48 20 -5 23 -10 15 -20 -7 -8 -12 -29 -12 -47 0 -19 -2 -54 -5 -79 -2 -25 -8
-115 -13 -200 -11 -178 -28 -337 -42 -395 -23 -89 -28 -136 -28 -267 -1 -94
-5 -138 -12 -138 -7 0 -10 -24 -8 -72 2 -41 -3 -91 -10 -113 -9 -30 -12 -83
-8 -190 12 -343 12 -338 -17 -387 -23 -39 -26 -56 -26 -131 0 -47 -4 -88 -9
-91 -4 -3 -11 -67 -15 -143 -8 -155 -13 -183 -31 -183 -8 0 -15 23 -20 65 -3
36 -11 67 -16 70 -5 4 -9 26 -9 51 0 25 -5 65 -11 90 -8 32 -8 48 0 57 8 10 8
36 -1 98 -6 46 -12 140 -13 209 -3 182 -39 514 -57 538 -7 8 -7 16 1 25 20 25
24 147 7 212 -11 41 -16 103 -16 201 0 181 -3 197 -45 220 -27 14 -31 20 -20
28 20 16 38 92 27 113 -5 10 -12 43 -16 73 -9 67 -30 104 -57 97 -10 -3 -22
-1 -25 5 -8 13 14 28 42 28 17 0 23 8 28 40 7 45 -3 148 -15 156 -4 2 -5 42
-2 89 5 74 3 88 -16 121 -20 34 -23 58 -31 248 -5 116 -19 315 -30 441 -11
127 -22 291 -25 365 -6 203 -14 287 -30 333 -8 23 -15 64 -15 91 0 44 -4 53
-44 93 l-45 44 -83 -6 c-46 -3 -99 -8 -118 -12 -73 -11 -268 -7 -284 7 -12 9
-30 11 -69 5 -73 -12 -161 -13 -317 -5 -111 5 -137 4 -147 -8 -10 -12 -21 -12
-60 -4 -26 6 -122 9 -213 9 -137 -2 -170 -5 -197 -20 -18 -10 -33 -25 -33 -35
0 -10 -5 -23 -12 -30 -8 -8 -7 -23 7 -58 15 -39 16 -53 6 -79 -8 -22 -8 -52
-2 -96 4 -35 5 -73 1 -84 -4 -11 -2 -28 4 -37 8 -13 7 -21 -1 -29 -12 -12 -11
-15 19 -75 12 -24 14 -43 8 -75 -9 -47 1 -120 18 -141 6 -9 7 -35 1 -78 -6
-41 -6 -89 0 -130 6 -36 13 -96 16 -135 6 -68 22 -131 52 -206 14 -35 25 -300
22 -551 0 -49 3 -88 8 -88 5 0 21 -18 36 -40 22 -35 25 -44 15 -65 -9 -19 -7
-72 6 -223 21 -225 27 -269 52 -332 13 -33 20 -91 25 -220 11 -236 25 -438 35
-475 4 -16 13 -36 20 -43 10 -10 11 -17 2 -31 -8 -14 -8 -34 1 -82 16 -79 18
-134 8 -176 -7 -26 -4 -36 15 -55 13 -13 21 -27 20 -33 -2 -5 -8 -37 -13 -70
-7 -51 -5 -66 12 -102 14 -30 18 -52 14 -76 -4 -21 -3 -37 4 -41 6 -4 11 -40
11 -84 1 -42 6 -97 12 -122 6 -25 12 -83 13 -130 3 -127 15 -230 31 -273 9
-25 12 -55 8 -90 -6 -48 -4 -55 28 -97 l35 -44 -19 -51 c-16 -43 -17 -56 -6
-98 9 -36 9 -50 0 -59 -7 -7 -12 -40 -12 -75 0 -52 5 -71 27 -106 25 -39 28
-51 30 -162 2 -66 5 -131 6 -145 8 -68 20 -112 33 -117 10 -4 11 -10 4 -23
-14 -26 -12 -88 2 -92 8 -3 5 -16 -10 -42 -26 -44 -28 -69 -7 -86 10 -8 15
-30 15 -64 0 -29 5 -57 11 -63 6 -6 13 -49 15 -95 7 -152 24 -332 38 -391 7
-32 9 -60 4 -63 -25 -16 2 -118 39 -146 16 -11 18 -31 18 -138 0 -160 15 -422
25 -435 19 -25 38 -213 39 -376 1 -102 5 -140 16 -155 8 -10 15 -32 15 -49 0
-51 30 -202 44 -230 8 -15 12 -41 9 -59 -4 -24 0 -36 17 -51 24 -22 0 -21 525
-19 874 3 850 4 916 -54 22 -19 31 -22 47 -13 24 13 143 15 278 6 l101 -7 21
27 c12 15 22 39 22 54 0 14 7 48 15 75 8 27 15 86 16 130 0 79 16 179 32 204
5 6 5 32 2 56 -5 33 -3 50 10 70 15 23 17 41 11 120 -5 70 -3 103 8 134 9 24
20 118 26 224 8 136 17 203 35 267 15 56 27 135 34 226 5 77 16 160 25 185 12
35 14 65 10 132 -4 54 -3 92 3 100 6 7 13 52 17 100 3 48 11 99 16 113 6 14
10 80 10 147 0 111 1 120 20 125 16 4 20 14 20 45 0 21 -7 49 -15 62 -14 21
-13 27 10 77 26 56 35 158 16 188 -8 12 0 47 21 96 4 11 17 79 28 150 26 176
34 214 56 255 15 28 20 68 25 200 6 148 21 254 43 301 4 10 2 35 -4 58 -7 28
-8 47 0 60 5 11 10 37 10 58 0 22 11 56 25 82 21 36 25 56 25 126 0 49 4 87
11 90 17 11 58 -35 70 -78 7 -26 7 -63 2 -108 -5 -37 -6 -74 -2 -81 4 -7 15
-69 24 -138 9 -69 21 -156 26 -195 6 -38 13 -126 17 -195 5 -89 14 -143 30
-187 29 -82 52 -252 62 -453 4 -91 19 -244 34 -340 14 -96 31 -258 37 -360 6
-107 16 -200 24 -220 8 -19 19 -84 26 -145 6 -60 15 -119 20 -130 4 -11 9 -99
11 -195 4 -167 5 -178 32 -235 25 -53 28 -71 26 -148 0 -49 3 -94 8 -100 15
-18 20 -143 10 -227 -11 -91 -4 -135 27 -164 22 -21 37 -89 34 -156 -4 -70 -1
-119 9 -155 6 -22 12 -86 12 -142 0 -91 2 -104 23 -127 23 -26 20 -26 277 -26
19 0 37 -5 38 -10 5 -13 65 -13 78 0 5 5 23 9 39 9 90 -1 200 -7 276 -14 69
-6 92 -5 116 7 17 8 38 12 49 8 30 -11 203 -22 217 -13 11 7 65 11 177 13 25
1 144 -1 265 -3 132 -3 227 -1 238 5 33 17 57 90 61 182 2 49 8 92 15 100 9
10 11 29 6 56 -5 27 -3 46 6 56 9 11 15 85 21 247 5 128 10 260 13 295 4 63
40 206 58 230 6 8 5 33 -3 72 -7 32 -9 69 -5 82 10 30 22 141 35 318 5 80 14
163 20 185 14 56 30 207 30 291 0 38 5 75 11 81 6 6 15 58 19 115 5 56 13 123
18 148 6 26 7 52 2 61 -6 10 -4 23 5 35 10 15 15 72 18 210 7 228 10 267 32
409 16 105 36 365 35 469 0 36 7 62 27 95 25 43 26 53 34 250 5 114 14 229 20
257 6 29 9 57 5 62 -4 6 0 51 8 99 14 80 30 180 57 363 6 36 12 76 14 90 3 14
14 167 26 340 11 173 26 325 31 337 6 12 8 41 4 67 -5 32 -3 53 8 75 11 20 16
58 16 115 0 48 7 125 15 173 8 49 15 122 15 163 0 41 3 103 6 137 5 59 4 64
-18 72 -13 6 -16 10 -8 10 20 1 48 34 50 58 7 108 5 128 -12 127 -27 -2 -21
13 7 20 13 3 28 14 33 24 5 9 12 73 16 142 15 303 17 324 40 348 15 17 21 38
23 75 5 174 21 388 30 399 13 15 19 86 32 333 5 94 12 206 15 250 13 152 -7
161 -349 158 -132 -1 -314 -4 -405 -8 -91 -4 -199 -5 -240 -3 -173 7 -346 3
-383 -10 -25 -9 -47 -28 -65 -55 -26 -39 -27 -47 -34 -221 -9 -248 -16 -313
-41 -373 -16 -40 -18 -55 -9 -66 9 -11 8 -23 -4 -53 -11 -26 -14 -53 -10 -85
4 -31 3 -48 -5 -51 -12 -4 -30 -250 -31 -433 -1 -63 -6 -107 -14 -120 -14 -23
-17 -200 -3 -227 5 -10 5 -37 -1 -65 -5 -26 -14 -113 -20 -193 -5 -80 -14
-186 -20 -235 -5 -50 -10 -145 -11 -210 -2 -116 -22 -273 -39 -306 -13 -24
-32 -128 -26 -138 4 -5 2 -12 -4 -16 -13 -8 -13 -72 2 -227 10 -110 10 -129
-4 -150 -16 -25 -37 -241 -58 -592 -6 -113 -15 -190 -24 -210 -8 -17 -18 -66
-22 -110 -5 -57 -12 -84 -25 -97 -11 -11 -19 -16 -20 -11 0 4 -3 18 -6 32 -8
38 -7 121 2 154 8 29 -8 168 -28 241 -6 22 -12 143 -13 275 -2 221 -16 429
-32 454 -10 17 -22 210 -32 536 -8 279 -16 369 -34 399 -5 7 -10 97 -12 199
-2 103 -6 214 -9 247 -3 33 -10 126 -15 207 -8 128 -12 151 -31 177 -19 25
-20 33 -9 46 15 19 8 142 -13 202 -10 31 -10 45 1 78 10 29 12 72 7 160 -3 66
-7 180 -8 253 -2 119 -4 135 -21 148 -11 8 -15 14 -9 14 24 0 23 34 -1 68 -20
28 -22 38 -13 53 8 13 8 34 -2 81 -7 35 -13 92 -12 128 1 57 -2 69 -24 93
l-26 27 -447 1 c-246 1 -476 1 -512 0 -195 -4 -782 -2 -848 3 -43 3 -90 1
-107 -5z m1764 -3844 c18 -38 4 -59 -45 -65 -21 -3 -45 -9 -51 -13 -21 -13
-15 -37 10 -37 12 0 47 -9 77 -19 43 -14 56 -23 58 -41 4 -27 -12 -40 -54 -40
-17 0 -37 -7 -44 -15 -11 -13 -10 -18 6 -30 18 -13 18 -14 1 -27 -12 -9 -18
-23 -15 -39 2 -20 8 -24 35 -23 39 2 50 -20 23 -43 -24 -21 -25 -31 -4 -73 14
-27 15 -45 8 -106 -6 -41 -6 -74 -2 -74 5 0 4 -9 -2 -20 -6 -12 -21 -20 -35
-20 -28 0 -59 -39 -53 -67 2 -10 13 -22 26 -28 35 -15 28 -49 -13 -65 -40 -16
-43 -38 -7 -56 l23 -12 -32 -22 c-31 -22 -31 -25 -26 -81 4 -51 3 -59 -14 -64
-24 -8 -18 -41 11 -66 18 -16 18 -17 -5 -39 -30 -28 -33 -66 -6 -75 40 -12 44
-31 17 -72 -31 -45 -32 -57 -6 -83 20 -20 20 -20 -3 -25 -21 -6 -22 -11 -22
-96 l0 -89 35 -11 c19 -6 44 -23 55 -36 l21 -25 -28 -30 c-33 -35 -36 -63 -9
-77 15 -8 51 -76 51 -96 0 -3 -12 -5 -26 -5 -36 0 -64 -17 -64 -40 0 -25 29
-40 80 -40 l40 0 -25 -50 c-14 -27 -25 -58 -25 -70 0 -14 -7 -20 -22 -20 -27
0 -58 -27 -58 -52 0 -13 10 -20 32 -25 l33 -6 -45 -11 c-36 -9 -46 -16 -48
-35 -3 -20 0 -23 17 -18 23 6 24 4 15 -41 -4 -18 -14 -32 -25 -35 -20 -5 -26
-32 -10 -42 5 -3 7 -21 4 -40 -5 -31 -3 -35 16 -35 21 0 21 -1 7 -27 -8 -16
-17 -35 -20 -43 -3 -8 -12 -23 -18 -33 -9 -12 -10 -20 -2 -25 13 -9 11 -65 -3
-69 -7 -3 -13 19 -16 54 -3 32 -8 74 -12 93 -7 42 -7 18 4 275 9 207 1 356
-20 381 -6 7 -6 21 -1 35 35 91 40 147 22 266 -24 161 -26 200 -13 209 16 11
18 73 8 294 -5 125 -4 186 4 215 7 23 14 138 17 274 3 129 8 239 11 244 3 5 7
89 8 185 2 207 3 210 87 182 39 -12 57 -24 67 -45z"/>
<path d="M9498 10640 c-312 -9 -341 -13 -368 -47 -22 -28 -26 -73 -10 -89 8
-8 8 -19 0 -38 -15 -41 -13 -418 4 -488 7 -32 9 -62 5 -70 -15 -22 -10 -57 10
-77 17 -17 17 -20 4 -25 -11 -5 -13 -14 -8 -34 9 -36 21 -48 37 -35 7 6 32 13
56 16 39 5 42 3 42 -18 0 -33 -21 -47 -44 -29 -33 24 -74 18 -90 -14 -13 -25
-24 -132 -16 -157 2 -5 1 -17 -3 -25 -3 -8 -8 -168 -11 -354 -5 -300 -4 -342
10 -357 14 -16 14 -20 -1 -48 -12 -25 -15 -60 -14 -169 3 -272 3 -348 2 -397
-1 -27 -4 -160 -6 -295 -5 -322 -17 -409 -57 -430 -10 -6 -41 -10 -69 -10 -27
0 -62 -5 -76 -10 -18 -7 -33 -7 -47 1 -12 6 -80 13 -152 16 -152 5 -165 13
-166 94 0 25 -5 50 -11 56 -8 8 -8 13 0 17 8 5 11 113 11 347 0 187 4 348 9
357 8 17 -12 552 -25 640 -4 30 -2 49 10 67 20 30 20 48 0 104 -12 36 -13 50
-3 73 8 19 10 63 5 141 -12 210 -13 302 -4 314 6 7 5 20 -2 33 -8 15 -10 45
-5 90 7 65 6 69 -18 85 -23 15 -24 18 -12 43 22 44 39 204 30 284 -8 86 -9
112 -4 238 2 72 -1 104 -14 133 l-16 37 -358 -1 c-197 -1 -383 2 -415 6 -44 5
-61 3 -81 -10 -23 -15 -28 -15 -56 -1 -36 19 -63 20 -107 4 -25 -9 -63 -9
-161 0 -107 9 -135 9 -168 -3 -22 -8 -68 -14 -102 -15 -55 0 -67 -4 -95 -29
l-33 -29 -5 -134 c-3 -73 -2 -145 2 -161 4 -15 6 -125 6 -245 -1 -339 2 -900
7 -1202 2 -161 0 -300 -6 -334 -8 -44 -7 -65 2 -82 9 -17 9 -30 0 -55 -16 -47
-14 -77 9 -91 28 -18 27 -58 -1 -58 -18 0 -20 -4 -15 -25 4 -14 2 -33 -3 -43
-6 -12 -6 -34 0 -61 6 -29 6 -47 -1 -56 -13 -16 -22 -536 -9 -551 5 -7 5 -32
-1 -64 -16 -84 -13 -212 6 -238 15 -21 15 -25 -1 -42 -9 -10 -14 -23 -11 -29
11 -17 8 -421 -5 -611 -15 -225 -15 -218 -2 -310 6 -44 7 -82 2 -92 -13 -25
-10 -138 5 -180 8 -21 10 -42 5 -50 -5 -7 -9 -41 -9 -75 0 -34 -4 -65 -10 -68
-19 -12 -11 -71 14 -94 22 -21 23 -23 9 -64 -12 -32 -14 -66 -8 -141 3 -55 10
-107 16 -117 12 -24 12 -106 -1 -114 -8 -5 -7 -11 1 -21 8 -10 8 -18 1 -27 -7
-7 -14 -98 -18 -220 -4 -114 -11 -207 -16 -207 -14 0 -9 -44 8 -68 15 -21 14
-26 -1 -59 -15 -31 -16 -47 -7 -107 8 -59 7 -76 -6 -98 -13 -23 -14 -31 -3
-52 11 -20 13 -88 7 -343 -3 -175 -5 -352 -3 -393 4 -142 -1 -845 -8 -991 -7
-143 -6 -146 17 -172 22 -26 26 -27 143 -28 66 0 133 4 149 11 22 8 40 7 75
-4 34 -10 103 -14 268 -14 145 0 228 -4 242 -12 22 -11 48 -9 166 16 48 11
114 15 210 13 290 -6 285 -6 302 16 10 14 13 35 10 71 -3 28 -1 100 4 160 22
276 30 461 34 869 3 242 10 488 17 547 10 95 10 109 -5 132 -18 27 -23 96 -7
96 6 0 10 45 10 115 0 70 -4 115 -10 115 -5 0 -10 23 -10 50 0 28 5 50 10 50
6 0 10 11 10 25 0 14 -4 25 -10 25 -15 0 -13 97 3 103 9 3 9 7 -1 19 -19 24
-15 485 6 551 10 34 12 66 7 115 -8 71 -11 294 -6 427 1 44 2 141 1 215 -1
117 2 144 22 203 24 72 23 71 84 46 28 -11 36 -10 60 7 20 13 47 19 84 19 30
1 98 4 150 9 95 8 96 8 120 -18 14 -14 30 -26 37 -26 7 0 14 -22 17 -52 5 -43
8 -407 7 -698 0 -30 0 -165 1 -300 0 -135 -4 -366 -10 -515 -13 -296 -32 -892
-34 -1050 -1 -71 4 -119 18 -165 20 -70 22 -266 4 -284 -13 -13 -12 -64 2
-126 9 -41 9 -56 -1 -72 -10 -16 -10 -35 -1 -90 7 -39 9 -87 6 -107 -4 -20
-11 -93 -16 -162 -7 -108 -6 -139 10 -214 27 -132 2 -124 380 -125 173 -1 360
0 415 1 90 1 138 2 229 0 16 0 36 5 43 11 9 7 45 10 101 7 85 -3 189 -2 323 3
36 2 73 9 82 16 41 34 62 203 35 277 -9 28 -8 39 10 77 27 54 27 71 2 127 -22
47 -25 82 -11 97 6 5 9 45 9 89 0 44 -2 193 -3 330 -1 138 -6 294 -10 347 -5
64 -4 106 3 125 7 17 13 193 17 468 4 242 9 514 12 605 3 91 5 194 5 230 -1
36 -3 160 -4 276 -2 155 -6 215 -16 226 -7 9 -9 19 -4 22 5 3 14 218 21 478 7
260 16 554 21 653 6 111 6 207 0 250 -5 39 -9 93 -10 120 0 28 -7 76 -15 107
-13 49 -13 62 0 97 15 44 13 208 -4 252 -5 14 -7 46 -4 72 4 36 2 52 -11 66
-15 16 -15 19 -2 24 12 5 16 23 16 79 0 40 1 98 2 128 3 82 -7 110 -39 110
-14 0 -42 -12 -62 -27 -20 -16 -49 -32 -66 -38 -24 -8 -31 -17 -36 -48 -7 -46
-15 -54 -54 -59 -24 -2 -34 -11 -49 -44 -20 -46 -60 -74 -104 -74 -56 0 -62 7
-62 74 0 66 11 86 45 86 12 0 30 8 41 18 11 10 32 22 47 26 19 4 33 18 42 39
7 18 22 40 32 48 31 27 115 68 184 89 108 33 103 19 106 328 2 147 7 334 13
415 14 210 13 282 -5 297 -12 10 -12 15 0 33 10 17 13 55 10 167 -2 80 -9 361
-14 625 -6 264 -13 490 -16 502 -3 13 -17 31 -32 40 -25 16 -60 18 -368 19
-187 0 -385 3 -440 6 -55 3 -215 2 -357 -2z m-1511 -7701 c24 -26 24 -26 96
-13 111 20 107 21 107 -32 0 -44 -3 -50 -62 -106 -66 -63 -97 -88 -110 -88 -5
0 -5 32 -2 70 l7 70 -27 0 c-20 0 -41 -13 -72 -45 -24 -25 -46 -45 -50 -45 -7
0 3 89 17 142 11 44 61 108 67 87 3 -8 15 -26 29 -40z"/>
<path d="M14730 10634 c-24 -10 -46 -13 -70 -8 -46 9 -544 4 -550 -5 -3 -5
-66 -4 -140 1 -99 7 -140 6 -156 -3 -13 -7 -34 -9 -51 -5 -64 16 -95 18 -103
6 -6 -9 -23 -9 -82 0 -41 7 -97 9 -124 6 -27 -4 -75 -9 -107 -12 -55 -6 -60
-8 -73 -40 -16 -38 -19 -156 -4 -184 7 -13 6 -21 -4 -29 -20 -17 -23 -596 -3
-608 8 -4 19 -18 26 -30 9 -18 8 -24 -11 -37 -20 -14 -20 -18 -10 -55 7 -21
26 -53 42 -71 l29 -31 73 8 c40 4 127 7 193 6 66 -1 190 -2 275 -3 85 -1 183
-4 218 -7 l62 -5 0 -52 c0 -29 6 -58 13 -65 18 -18 16 -2264 -3 -2285 -8 -11
-10 -34 -5 -78 10 -100 9 -260 -5 -443 -9 -130 -10 -204 -1 -315 7 -102 8
-157 0 -185 -6 -22 -12 -112 -15 -200 -6 -212 -6 -208 11 -221 19 -14 19 -35
1 -79 -12 -29 -12 -43 -1 -92 15 -69 13 -367 -4 -386 -7 -10 -4 -23 11 -47 17
-28 19 -44 14 -88 -4 -30 -13 -60 -21 -68 -38 -38 -43 -171 -11 -249 19 -45
24 -352 6 -447 -8 -48 -9 -72 -1 -86 18 -33 14 -336 -5 -428 -13 -61 -14 -82
-5 -97 9 -14 9 -32 1 -73 -6 -29 -10 -89 -9 -131 5 -152 -13 -619 -27 -699 -8
-44 -14 -93 -14 -109 0 -42 40 -160 64 -189 20 -24 26 -25 146 -27 69 -1 190
-1 270 0 80 1 202 -1 272 -4 80 -3 129 -1 133 5 3 5 46 10 95 10 57 0 90 4 92
11 3 9 13 9 38 1 22 -6 135 -10 293 -9 253 2 259 3 276 24 33 40 41 218 40
908 0 813 10 1545 22 1609 13 69 12 798 -2 871 -6 32 -12 157 -15 279 -2 122
-5 237 -5 256 -1 19 0 92 2 163 2 70 1 127 -2 127 -17 0 -19 35 -3 47 14 10
17 41 22 210 7 215 8 370 5 678 -2 311 3 568 11 587 5 10 5 95 1 190 -8 205
-9 224 -2 438 3 91 2 199 -2 240 -4 41 -4 77 1 78 11 5 10 133 -2 152 -6 9 -5
17 3 22 7 4 14 46 17 110 l5 103 45 23 c45 24 49 24 405 26 198 2 367 6 377
10 9 4 19 19 23 34 9 36 19 460 16 652 -2 100 1 166 9 185 10 27 9 32 -15 51
-23 18 -25 22 -10 28 14 5 16 14 10 44 -12 70 -27 76 -193 81 -242 8 -750 12
-852 8 -25 -1 -90 2 -146 6 -89 7 -103 6 -118 -9 -17 -16 -22 -16 -94 0 -53
12 -85 15 -101 8 -14 -5 -91 -7 -171 -4 -103 3 -153 1 -169 -7 -15 -8 -26 -9
-34 -3 -23 19 -81 22 -117 6z"/>
<path d="M25168 10641 c-290 -6 -298 -7 -320 -28 -16 -16 -22 -34 -21 -60 1
-21 1 -45 1 -53 0 -8 -2 -112 -5 -231 -3 -163 -1 -231 10 -277 8 -34 10 -66 6
-74 -15 -22 -10 -57 10 -77 16 -16 17 -20 4 -25 -11 -5 -13 -14 -8 -38 9 -42
9 -43 42 -30 15 6 43 13 61 16 28 5 32 3 32 -17 0 -36 -17 -47 -48 -31 -39 20
-70 17 -83 -8 -16 -30 -28 -139 -18 -160 5 -9 5 -19 1 -22 -5 -3 -12 -162 -15
-353 -6 -305 -5 -349 9 -364 14 -16 14 -20 -1 -48 -12 -25 -15 -60 -14 -169 3
-274 3 -348 1 -397 -1 -27 -3 -153 -5 -280 -5 -289 -13 -383 -38 -424 -18 -29
-22 -31 -78 -31 -33 0 -72 -5 -86 -10 -18 -7 -33 -7 -46 1 -11 5 -79 12 -152
15 -154 6 -166 13 -167 96 0 26 -5 50 -10 53 -8 5 -8 11 -1 19 10 12 21 488
20 846 -1 148 -15 432 -25 494 -5 29 -2 49 11 72 17 32 17 36 1 94 -14 48 -15
64 -5 76 8 10 10 48 5 137 -12 238 -13 312 -4 324 6 7 5 20 -2 33 -7 13 -9 45
-4 89 6 67 5 70 -20 86 -22 14 -23 19 -12 31 18 18 37 130 37 224 1 343 -1
406 -19 440 l-17 35 -355 1 c-195 0 -380 4 -411 8 -46 7 -61 5 -84 -10 -26
-17 -28 -17 -60 0 -24 13 -43 16 -67 12 -73 -16 -133 -17 -226 -7 -80 9 -104
8 -137 -4 -22 -8 -69 -14 -105 -15 -111 -1 -141 -47 -132 -201 3 -61 1 -93 -7
-103 -9 -11 -9 -22 2 -48 11 -26 13 -71 9 -206 -4 -129 -2 -175 8 -187 10 -12
10 -21 1 -44 -13 -31 -15 -146 -7 -556 12 -617 12 -704 3 -778 -8 -59 -8 -84
1 -98 8 -13 9 -26 2 -44 -14 -37 -12 -76 4 -94 7 -9 17 -26 20 -38 6 -19 4
-23 -14 -23 -17 0 -21 -5 -20 -27 1 -16 1 -32 -1 -38 -10 -37 -18 -674 -9
-680 5 -3 6 -15 1 -28 -5 -12 -12 -65 -15 -117 -6 -78 -4 -103 9 -138 14 -33
15 -45 5 -57 -6 -8 -9 -19 -6 -24 11 -17 8 -442 -3 -511 -6 -36 -10 -139 -10
-230 0 -91 -1 -223 -1 -295 -1 -74 3 -142 10 -159 7 -19 7 -39 1 -60 -5 -17
-12 -70 -16 -118 -6 -84 -5 -88 18 -108 23 -20 24 -24 11 -49 -18 -36 -20
-137 -6 -221 16 -92 20 -148 11 -162 -4 -7 -3 -18 3 -25 7 -9 7 -17 -2 -28 -9
-11 -16 -78 -21 -215 -5 -110 -13 -208 -18 -218 -8 -14 -5 -29 10 -56 18 -33
18 -38 4 -60 -12 -18 -15 -46 -13 -112 1 -49 0 -527 -2 -1063 -5 -858 -3 -977
10 -993 13 -15 33 -18 140 -19 69 -1 137 4 152 10 21 8 38 7 70 -5 24 -8 71
-14 112 -13 85 2 250 2 323 0 29 -1 64 -6 78 -11 18 -7 59 -5 133 5 106 15
398 21 445 10 13 -4 43 -1 66 5 46 12 57 35 48 98 -4 20 -2 89 3 152 24 292
31 459 36 872 2 243 9 489 16 545 9 90 9 105 -6 127 -18 28 -22 96 -6 96 6 0
10 45 10 115 0 70 -4 115 -10 115 -5 0 -10 23 -10 50 0 28 5 50 10 50 6 0 10
11 10 25 0 14 -4 25 -10 25 -15 0 -13 97 3 103 9 3 9 7 -1 19 -20 24 -15 485
6 551 11 36 13 66 7 120 -8 73 -11 289 -6 427 1 41 1 136 -2 210 -2 74 -1 140
3 145 6 9 35 87 46 124 3 11 9 10 29 -3 31 -20 69 -20 99 -1 17 12 62 17 174
21 149 5 150 5 177 -20 15 -14 32 -27 38 -29 17 -5 32 -604 17 -680 -8 -43 -8
-82 1 -156 9 -76 9 -171 0 -417 -6 -175 -16 -458 -22 -629 -5 -170 -13 -424
-18 -563 -8 -213 -7 -261 6 -305 8 -28 20 -68 25 -88 10 -35 0 -172 -18 -243
-4 -15 -1 -59 6 -97 10 -55 11 -71 1 -83 -10 -12 -10 -30 -1 -87 9 -53 9 -91
1 -147 -21 -157 -22 -252 -1 -341 28 -128 5 -120 380 -121 173 -1 360 0 415 1
90 1 138 2 229 0 16 0 36 5 43 11 9 7 45 10 101 7 86 -3 196 -2 323 3 36 2 73
9 82 16 26 22 47 101 47 182 0 42 -5 81 -11 87 -14 14 -2 88 17 104 19 15 18
57 -2 94 -28 51 -33 82 -19 101 10 14 11 94 7 383 -6 415 -6 394 7 871 20 764
24 897 22 955 0 33 -2 155 -3 271 -2 155 -6 215 -16 226 -7 9 -9 19 -4 22 5 3
14 222 20 488 7 266 15 542 19 613 12 221 4 398 -23 510 -13 53 -13 65 0 96
16 39 14 206 -3 252 -5 13 -7 43 -4 65 4 29 1 49 -10 66 -14 21 -14 25 -2 30
11 4 15 24 15 78 0 40 1 98 2 128 2 86 -7 110 -41 110 -18 0 -43 -11 -62 -27
-18 -16 -46 -32 -63 -38 -25 -8 -32 -17 -37 -48 -7 -46 -15 -54 -54 -59 -24
-2 -34 -11 -49 -44 -20 -46 -60 -74 -104 -74 -56 0 -62 7 -62 74 0 66 11 86
46 86 13 0 29 8 36 18 7 10 26 22 41 26 19 4 33 17 42 39 7 18 22 40 32 49 28
24 118 67 187 88 96 30 101 39 102 189 1 69 7 285 13 480 11 312 11 356 -3
369 -12 13 -13 18 -1 36 10 16 13 56 10 166 -2 80 -9 365 -14 635 -6 269 -13
495 -15 502 -3 6 -17 20 -33 30 -25 16 -57 18 -368 19 -187 0 -385 3 -440 6
-55 3 -234 2 -397 -1z m-1378 -7712 c36 7 78 14 94 17 l29 6 -5 -52 c-5 -49
-10 -57 -64 -108 -33 -30 -69 -61 -82 -70 -31 -20 -46 -5 -32 32 5 15 10 41
10 57 0 45 -46 40 -99 -11 -22 -22 -44 -40 -47 -40 -11 0 5 118 21 157 9 21
23 46 32 56 16 17 18 17 48 -18 l30 -37 65 11z"/>
<path d="M27896 10605 c-29 -11 -53 -13 -95 -6 -31 5 -146 6 -256 3 -181 -5
-283 -6 -317 -3 -7 1 -51 0 -98 -2 -98 -4 -144 -23 -154 -63 -4 -14 -7 -135
-7 -267 0 -133 -2 -306 -6 -384 -4 -99 -2 -143 5 -143 8 0 8 -9 0 -32 -8 -23
-8 -132 2 -409 7 -207 10 -415 7 -462 -3 -46 -2 -112 3 -147 6 -39 5 -72 -1
-88 -14 -38 -19 -596 -5 -624 7 -14 9 -51 4 -102 -3 -45 -7 -125 -7 -178 -1
-58 -5 -98 -11 -98 -14 0 -13 -60 2 -114 10 -37 9 -50 -3 -72 -12 -23 -13
-110 -11 -558 2 -292 8 -536 13 -542 5 -6 5 -25 0 -45 -26 -102 -34 -877 -12
-1169 6 -85 11 -174 11 -197 0 -23 4 -44 9 -47 5 -4 3 -18 -5 -35 -12 -23 -13
-65 -10 -207 8 -285 6 -546 -4 -719 -12 -187 -11 -334 2 -341 5 -3 1 -12 -9
-19 -16 -12 -16 -19 -6 -70 8 -36 9 -64 3 -81 -5 -13 -13 -213 -16 -444 -6
-331 -4 -435 6 -490 7 -39 16 -73 20 -75 3 -2 75 -8 160 -14 93 -7 157 -16
161 -23 4 -6 15 -8 25 -3 11 4 129 9 264 11 135 2 310 6 389 8 87 4 161 1 186
-5 33 -8 49 -8 66 2 17 8 67 12 160 11 134 -2 149 0 219 37 32 17 42 80 37
223 -3 76 -10 145 -15 155 -8 16 -18 353 -12 423 1 14 -1 49 -5 77 -5 32 -4
58 2 65 7 8 7 45 1 103 -9 93 -4 191 11 209 5 6 5 37 -1 71 -8 43 -7 120 2
275 9 149 10 323 6 565 -9 433 -9 448 -1 512 6 48 5 52 -17 56 -19 4 -20 5 -3
6 20 1 20 9 24 299 4 312 5 421 3 462 -1 14 3 144 8 290 7 201 6 299 -4 405
-7 77 -14 214 -15 305 -1 91 -6 190 -12 221 -9 55 -7 124 23 732 10 208 10
262 -1 278 -7 13 -9 25 -3 32 5 7 12 80 16 162 8 185 8 1213 0 1311 -5 48 -3
74 5 78 8 5 8 13 0 28 -8 15 -8 32 1 65 9 28 10 69 6 116 -4 40 -8 167 -10
282 -2 116 -7 227 -11 248 -7 34 -10 37 -42 37 -19 0 -43 -5 -54 -11 -32 -17
-131 -29 -164 -20 -24 6 -14 9 52 13 55 4 88 11 98 22 9 8 32 18 51 22 34 6
36 9 30 37 -11 55 -19 58 -145 58 -64 0 -136 0 -161 0 -25 0 -92 -1 -150 -2
-58 -1 -125 1 -150 5 -29 4 -59 0 -84 -9z"/>
<path d="M12187 10599 c-10 -6 -39 -10 -65 -10 -26 -1 -219 0 -430 1 -356 1
-386 0 -415 -18 -43 -25 -47 -50 -46 -337 0 -132 -3 -293 -7 -357 -4 -76 -3
-122 3 -130 7 -9 7 -33 0 -77 -7 -47 -7 -129 3 -300 20 -364 24 -546 10 -570
-8 -17 -8 -40 1 -97 11 -60 10 -81 0 -110 -15 -40 -18 -591 -3 -621 10 -22 -5
-335 -19 -383 -8 -27 -7 -50 4 -93 13 -50 13 -63 2 -91 -21 -51 -28 -243 -16
-441 16 -260 16 -781 -1 -955 -22 -244 -11 -839 20 -1110 7 -52 6 -79 -2 -89
-8 -10 -9 -66 -6 -180 8 -276 1 -792 -12 -834 -8 -27 -8 -59 -1 -115 7 -54 7
-79 -1 -84 -8 -5 -7 -16 1 -38 10 -26 9 -32 -4 -37 -12 -5 -14 -15 -9 -46 4
-23 11 -47 17 -53 7 -9 7 -20 -2 -36 -25 -47 -36 -941 -11 -970 7 -9 10 -22 6
-31 -8 -21 9 -25 175 -36 79 -6 149 -15 155 -20 8 -6 26 -6 51 0 22 6 139 12
260 14 121 2 287 6 369 9 98 4 163 2 187 -6 29 -8 45 -8 69 2 20 8 82 13 168
14 226 3 247 20 245 211 -1 61 -6 139 -12 175 -6 36 -11 111 -11 167 0 56 -5
114 -12 128 -8 19 -8 41 1 95 10 55 10 81 1 120 -7 28 -9 58 -4 68 10 21 10
77 17 1337 4 731 9 1034 18 1071 9 39 9 62 0 100 -7 27 -12 54 -11 59 1 6 6
138 11 295 7 196 7 316 0 385 -6 55 -11 183 -11 284 0 101 -4 200 -10 220 -5
20 -9 68 -10 106 0 39 0 125 0 193 0 67 4 131 10 141 5 11 12 152 15 333 7
412 15 610 28 625 6 9 6 22 -2 41 -9 20 -11 197 -7 667 2 352 5 649 6 660 3
56 -18 592 -25 608 -5 12 -19 17 -49 17 -23 0 -46 -4 -52 -10 -5 -5 -43 -12
-84 -15 -51 -4 -69 -2 -55 4 11 5 43 10 70 10 37 1 55 6 67 20 9 11 33 23 52
26 33 7 35 9 29 39 -4 17 -13 36 -22 43 -18 14 -144 16 -176 4 -12 -5 -36 -2
-60 6 -31 11 -53 12 -100 4 -63 -10 -183 -9 -250 2 -24 5 -47 3 -58 -4z"/>
<path d="M18888 10604 c-5 -5 -430 -17 -513 -14 -117 4 -296 0 -335 -7 -25 -5
-79 -4 -120 0 -93 11 -292 8 -385 -5 -38 -5 -90 -11 -115 -12 -25 -1 -53 -6
-62 -10 -18 -8 -92 -3 -139 9 -22 6 -34 0 -69 -31 -40 -37 -41 -39 -42 -103 0
-36 0 -101 -1 -144 0 -58 4 -81 14 -88 8 -5 9 -9 3 -9 -17 0 -47 -255 -33
-281 8 -16 8 -43 -1 -104 -8 -58 -9 -89 -1 -102 28 -54 36 -415 10 -502 -10
-32 -9 -77 2 -223 14 -189 14 -481 -2 -509 -5 -10 -4 -30 2 -50 17 -55 17
-156 2 -289 -10 -80 -13 -167 -9 -240 7 -152 6 -212 -3 -290 -5 -41 -5 -72 2
-84 9 -18 7 -184 -9 -986 -2 -74 -4 -160 -4 -190 -1 -30 2 -79 5 -108 5 -35 3
-58 -4 -65 -14 -14 -15 -117 -1 -117 15 0 12 -28 -6 -55 -12 -19 -14 -40 -10
-92 7 -95 7 -91 0 -156 -4 -40 -3 -66 6 -82 10 -18 10 -37 3 -74 -8 -40 -7
-53 5 -65 13 -13 13 -19 -4 -53 -16 -32 -19 -56 -16 -153 1 -63 7 -116 12
-118 14 -5 13 -105 -1 -119 -7 -7 -7 -13 -1 -17 7 -4 6 -16 -1 -36 -9 -23 -9
-35 0 -50 7 -10 12 -47 12 -82 -1 -65 0 -207 3 -570 2 -153 -1 -211 -10 -220
-14 -14 -16 -118 -2 -118 15 0 12 -38 -2 -43 -10 -3 -13 -72 -14 -298 -1 -253
1 -297 15 -312 12 -14 13 -22 3 -37 -8 -13 -13 -153 -18 -462 -5 -376 -4 -446
8 -462 12 -15 34 -20 114 -25 55 -4 105 -11 112 -15 7 -4 19 -3 26 3 10 9 248
25 314 22 6 0 28 0 47 0 76 2 111 2 415 -1 173 -1 322 1 331 4 9 4 33 3 55 -2
24 -5 50 -5 64 0 14 5 61 7 105 4 77 -5 141 -5 438 0 75 1 139 -1 142 -5 2 -4
35 -4 72 1 44 5 89 4 125 -3 49 -10 63 -9 94 6 29 13 42 15 61 6 14 -7 46 -9
77 -5 32 4 61 2 74 -5 11 -6 28 -8 37 -5 37 15 42 51 43 306 1 136 3 262 7
280 10 59 13 408 4 414 -5 3 -9 18 -9 34 0 33 -40 70 -76 70 -12 0 -26 5 -29
10 -7 11 -101 12 -129 1 -11 -4 -43 -4 -73 1 -43 7 -58 5 -78 -8 -31 -20 -82
-22 -205 -6 -85 11 -96 11 -107 -4 -10 -13 -17 -14 -45 -5 -19 6 -84 10 -144
10 -61 -1 -118 2 -128 8 -21 12 -65 106 -66 140 0 12 5 25 10 28 6 3 10 22 10
41 0 19 -4 34 -10 34 -14 0 -12 37 6 120 15 67 15 76 0 128 -20 64 -20 81 -11
492 3 162 2 337 -2 388 -5 55 -5 96 0 99 5 3 6 28 3 55 -5 34 -3 55 6 65 13
16 15 186 5 573 -10 359 -9 540 1 553 9 11 19 43 37 130 5 26 8 28 63 28 31 0
82 1 112 1 30 1 215 -1 410 -4 392 -6 425 -2 450 50 16 34 32 922 17 965 -20
58 -7 57 -562 58 -50 0 -100 -5 -112 -12 -18 -10 -31 -8 -73 10 -42 18 -62 21
-105 16 -29 -4 -76 -4 -104 0 -50 7 -51 8 -76 63 -25 54 -26 67 -31 282 -3
131 -1 281 6 360 9 109 9 158 -3 254 -8 68 -11 137 -6 160 7 39 11 353 7 521
-3 117 12 366 24 398 19 48 62 59 228 55 30 -1 69 -1 85 0 160 10 293 12 353
4 99 -12 297 4 337 27 32 19 42 45 44 124 1 29 -5 57 -15 72 -13 20 -14 31 -5
56 16 47 13 100 -6 121 -14 16 -15 21 -4 27 17 11 32 276 28 476 -3 108 -7
140 -18 145 -8 4 -24 12 -36 18 -25 13 -146 8 -226 -10 -40 -8 -51 -8 -65 5
-20 18 -40 19 -357 13 -126 -2 -235 0 -241 5 -6 5 -13 6 -16 3z m-644 -7769
c-4 -15 -2 -25 5 -25 6 0 11 10 11 21 0 18 3 19 15 9 8 -7 25 -10 39 -6 19 5
25 1 29 -15 4 -15 11 -20 22 -15 10 4 23 -2 33 -14 12 -14 43 -25 105 -36 75
-14 91 -20 113 -46 14 -17 23 -37 20 -45 -4 -8 -6 -22 -6 -31 -1 -9 -10 4 -22
31 -23 53 -58 67 -58 23 l0 -24 -90 30 c-49 17 -90 36 -90 42 0 8 -32 10 -107
8 -88 -3 -106 -1 -95 9 6 7 12 21 12 30 0 11 9 19 23 21 16 2 23 11 25 31 2
15 8 27 13 27 5 0 7 -11 3 -25z"/>
<path d="M12103 1830 c-243 -44 -393 -229 -393 -485 0 -108 15 -187 51 -262
50 -105 133 -160 368 -243 244 -86 262 -98 282 -185 16 -72 7 -249 -14 -295
-27 -56 -75 -82 -160 -88 -94 -6 -147 9 -186 53 -35 40 -51 90 -51 158 l0 47
-151 0 -151 0 4 -103 c3 -87 8 -111 33 -162 84 -175 286 -275 527 -261 244 15
381 114 444 321 15 47 19 93 19 210 0 198 -21 281 -92 365 -47 56 -123 96
-302 159 -201 71 -240 90 -273 130 -57 67 -39 271 29 333 69 62 207 62 276 0
34 -30 58 -92 64 -163 l6 -69 143 0 144 0 0 108 c-1 121 -20 187 -79 261 -42
53 -150 124 -231 151 -74 25 -223 35 -307 20z"/>
<path d="M23080 1824 c-184 -40 -319 -169 -359 -344 -16 -67 -13 -237 4 -303
46 -179 116 -234 434 -349 175 -63 213 -83 236 -128 20 -40 29 -190 16 -270
-19 -112 -63 -151 -179 -158 -93 -5 -140 8 -179 49 -37 38 -51 81 -52 152 l-1
57 -155 0 -155 0 0 -53 c0 -138 46 -252 135 -336 92 -87 194 -127 350 -137
287 -18 483 111 536 351 16 74 17 302 1 372 -27 119 -93 208 -191 258 -28 14
-128 52 -221 85 -94 32 -185 68 -203 79 -45 28 -69 73 -74 145 -16 191 78 296
241 272 99 -15 156 -91 156 -208 l0 -68 151 0 151 0 -4 113 c-3 97 -8 120 -32
174 -88 194 -353 302 -606 247z"/>
<path d="M21030 1814 c-96 -26 -177 -70 -236 -128 -65 -66 -100 -136 -114
-231 -12 -86 -13 -983 -1 -1079 18 -136 101 -250 230 -315 87 -44 161 -61 269
-61 242 0 425 114 484 302 17 55 18 103 18 614 0 536 -1 557 -21 617 -48 143
-178 250 -347 286 -72 15 -215 13 -282 -5z m259 -277 c85 -43 82 -17 79 -634
l-3 -542 -34 -35 c-62 -64 -169 -78 -257 -33 -93 48 -89 17 -89 617 0 573 0
571 57 612 73 51 165 57 247 15z"/>
<path d="M13540 1695 l0 -125 175 0 175 0 0 -780 0 -780 155 0 155 0 0 780 0
780 170 0 170 0 0 125 0 125 -500 0 -500 0 0 -125z"/>
<path d="M15472 1072 l3 -747 32 -66 c40 -80 130 -170 207 -205 260 -119 575
-26 688 204 l33 67 3 747 3 748 -156 0 -155 0 0 -709 c0 -479 -3 -719 -11
-738 -50 -132 -258 -144 -323 -18 -21 39 -21 53 -24 753 l-3 712 -150 0 -149
0 2 -748z"/>
<path d="M17430 915 l0 -908 278 6 c296 5 372 16 473 67 62 32 135 105 164
164 51 104 55 151 55 677 0 290 -4 508 -10 540 -25 133 -108 243 -223 298
-101 47 -142 53 -449 58 l-288 5 0 -907z m566 624 c36 -18 56 -36 74 -69 l25
-45 0 -505 0 -505 -25 -50 c-36 -72 -87 -95 -225 -103 l-105 -5 0 658 0 658
104 -5 c83 -4 113 -9 152 -29z"/>
<path d="M19250 915 l0 -905 155 0 155 0 0 905 0 905 -155 0 -155 0 0 -905z"/>
</g>
</svg>
